<?xml version="1.0" encoding="utf-8"?>
<!-- Generator: Adobe Illustrator 22.0.1, SVG Export Plug-In . SVG Version: 6.00 Build 0)  -->
<svg version="1.1" id="圖層_1" xmlns="http://www.w3.org/2000/svg" xmlns:xlink="http://www.w3.org/1999/xlink" x="0px" y="0px"
	 viewBox="0 0 50 39.6" style="enable-background:new 0 0 50 39.6;" xml:space="preserve">
<style type="text/css">
	.st0{fill:#FFFFFF;stroke:#7D7D7D;stroke-width:0.25;stroke-miterlimit:10;}
	.st1{fill:url(#SVGID_1_);}
	.st2{fill:none;stroke:#7D7D7D;stroke-width:0.25;stroke-miterlimit:10;}
</style>
<g>
	<path class="st0" d="M2.7,7.4l3-1.2C6.3,6,6.7,5.6,6.9,5c0.2-0.5,0.5-1,0.9-1.3l0.1-0.1l0,0.1c1.7-1.4,5-1,5-1
		c1.3,0.1,2.4,1,2.8,2.2L16.8,8l1.8,1.8l0,0l0.7,0.7c0.1,0,0.2,0,0.2,0c0,0,0.1,0,0.1,0c0,0,0,0,0,0c0,0,0,0,0,0l0.1,0
		c0,0,0.1,0,0.1,0c0.1,0,0.2,0,0.3,0.1l0.2,0.1c0.1,0,0.3,0.1,0.5,0.1l0.2,0.1l0.3,0.1c0,0,0,0,0,0l0.4,0.1c0.6,0.2,1.3,0.4,2,0.6
		l0.3,0.1l0.3,0.1l0.3,0.1c1.2,0.3,2.1,0.6,2.1,0.6c0.1,0,0.3,0.1,0.4,0.1c1.3,0.1,8.7,0.6,11.5,1.1c0,0,0,0,0,0
		c0.1,0,0.1-0.1,0.2-0.1c0.1-0.1,0.1-0.1,0.2-0.2c0.4-0.3,0.8-0.7,1.2-1.1c0,0,0,0,0,0c0.2-0.2,0.4-0.4,0.6-0.6c0,0,0,0,0,0
		c0.2-0.2,0.3-0.4,0.5-0.6c0,0,0,0,0-0.1c0,0,0.1-0.1,0.1-0.1c0.3-0.4,0.5-0.7,0.7-1.1c0,0,0,0,0-0.1l0,0l0,0
		c0.2-0.3,0.3-0.6,0.5-0.8c0.1-0.2,0.2-0.4,0.3-0.5c0.2-0.4,0.4-0.8,0.6-1.2c0.2-0.5,0.4-1,0.5-1.5c0-0.1,0-0.2,0.1-0.2
		c0.1-0.5,0.3-1,0.4-1.4c0-0.1,0.1-0.1,0.2-0.1c0.1,0,0.2,0.1,0.2,0.2c0,0.7,0,1.5-0.1,2.5c-0.1,1-0.4,2.2-0.9,3.4
		c-0.3,0.6-0.5,1.1-0.7,1.6l0,0l0,0c-0.2,0.5-0.5,0.9-0.8,1.4c-0.1,0.1-0.2,0.2-0.2,0.4c-0.5,0.8-1.1,1.6-1.8,2.3
		c0.4,0.9,0.7,2,0.8,3.1l0,0l0.5,3.4v0c0.2,0.6,0.4,1.2,0.6,1.8c0.3,0.9,0.7,1.6,1.1,2.2v0c0,0,0,0,0,0l0,0l0,0
		c0.6,0.9,1.2,1.6,1.7,1.9c0.3,0.3,0.5,0.6,0.6,0.9c0.4,1.6,1.6,6,1.6,6l0,0h0c0,0.1,0,0.1,0,0.2c0.1,0.4,0,0.9-0.3,1.3
		c-0.3,0.3-0.6,0.5-0.9,0.5l-1.7,0c-0.5,0-0.8-0.2-1-0.5c-0.1-0.3-0.1-0.6,0.1-0.9c0.1-0.2,0.3-0.3,0.5-0.5c0.1-0.1,0.2-0.2,0.3-0.3
		L44,32.2l-0.6-1.8l-2.5-1.5c0.4,1.9,1,6.3,1,6.3c0.2,0.9-0.6,1.7-1.2,1.7L39,37c-1,0-1.3-0.8-0.8-1.4c0.2-0.3,0.6-0.5,0.8-0.7
		L38.1,30l-4.2-3c-0.6-0.6-1.1-1.3-1.5-1.9l-0.4,0.1c-0.6,0.2-1.3-0.1-1.5-0.4c-0.1-0.2,0-0.6,0.2-0.9c-3.8,0.6-7.7,1.1-10.7,1.1
		l0.8,4.7l0.2,1c0,0.2-0.5,3-0.6,3.7l0,0l0,0c0,0-0.3,2.6-1.9,2.6L16.7,37c-0.7,0-1.1-0.2-1.2-0.5c-0.1-0.3,0-0.8,0.3-1.2
		c0.3-0.3,0.7-0.5,1.1-0.7c0.2-0.1,0.5-0.2,0.7-0.3l0.4-1.7c0.2-0.8,0.1-1.7-0.2-2.5l-1-2.6l-0.8-2l-1.2,5.7c0,0.2-0.1,0.4-0.2,0.6
		l-1.5,2.9l0,0c-0.2,0.7-0.7,1.6-1.5,1.6L10,36.5c-1.5,0-1.3-1-0.8-1.6c0.4-0.5,1.1-0.7,1.5-0.9l0.9-1.5c0.4-0.8,0.7-1.7,0.7-2.6
		l0.3-8.7c-0.1-0.2-0.1-0.5-0.2-0.7c-0.1-0.6-0.1-1.2-0.1-1.8v-1.1l-1-1.6l-2-3.3c-0.2-0.3-0.5-0.5-0.9-0.5l-0.4,0l0,0l-0.2,0
		l-1.8,0l0,0l-1.1,0c-0.8,0-1.5-0.2-1.9-0.7C2.7,11,2.5,10.3,2.4,9.2c0,0,0-0.1,0-0.1c0,0,0-0.1,0-0.1L2.1,8.2
		C2.1,7.8,2.4,7.5,2.7,7.4z"/>
	<linearGradient id="SVGID_1_" gradientUnits="userSpaceOnUse" x1="8.7937" y1="26.3666" x2="47.862" y2="26.3666">
		<stop  offset="0" style="stop-color:#CDF9EB"/>
		<stop  offset="0.4703" style="stop-color:#EDF958"/>
		<stop  offset="1" style="stop-color:#7EE84D"/>
	</linearGradient>
	<path class="st1" d="M22.5,15.7c-4.6,0.2-7.9,0.8-10.3,1.6l0.1,0.2v1.1c0,0.6,0,1.2,0.1,1.8c0,0.2,0.1,0.5,0.2,0.7l-0.3,8.7
		c0,0.9-0.3,1.8-0.7,2.6l-0.9,1.5c-0.5,0.3-1.2,0.5-1.5,0.9c-0.5,0.6-0.7,1.6,0.8,1.6l1.7-0.1c0.8,0,1.3-0.8,1.5-1.6l0,0l1.5-2.9
		c0.1-0.2,0.2-0.4,0.2-0.6l1.2-5.7l0.8,2l1,2.6c0.3,0.8,0.4,1.7,0.2,2.5l-0.4,1.7c-0.2,0.1-0.4,0.2-0.7,0.3
		c-0.4,0.2-0.8,0.4-1.1,0.7c-0.4,0.4-0.5,0.9-0.3,1.2c0.1,0.3,0.6,0.5,1.2,0.5l1.8-0.1c1.6,0,1.9-2.6,1.9-2.6l0,0l0,0
		c0.1-0.6,0.6-3.5,0.6-3.7l-0.2-1L19.9,25c2.9,0,6.8-0.5,10.7-1.1c-0.2,0.3-0.3,0.7-0.2,0.9c0.2,0.3,1,0.6,1.5,0.4l0.4-0.1
		c0.4,0.6,0.9,1.3,1.5,1.9l4.2,3l0.9,4.9c-0.3,0.2-0.6,0.4-0.8,0.7C37.7,36.2,38,37,39,37l1.7,0c0.6,0,1.4-0.8,1.2-1.7
		c0,0-0.6-4.5-1-6.3l2.5,1.5l0.6,1.8l0.9,2.6c-0.1,0.1-0.2,0.2-0.3,0.3c-0.2,0.1-0.4,0.3-0.5,0.5c-0.2,0.3-0.3,0.6-0.1,0.9
		c0.2,0.3,0.5,0.5,1,0.5l1.7,0c0.3,0,0.6-0.2,0.9-0.5c0.3-0.4,0.4-0.8,0.3-1.3c0-0.1,0-0.1,0-0.2h0l0,0c0,0-1.2-4.4-1.6-6
		c-0.1-0.4-0.3-0.7-0.6-0.9c-0.4-0.3-1-1-1.7-1.9l0,0l0,0c0,0,0,0,0,0v0c-0.4-0.6-0.8-1.3-1.1-2.2c-0.2-0.5-0.4-1.1-0.6-1.8v0
		l-0.5-3.4l0,0c-0.1-0.6-0.2-1.2-0.4-1.8C34.7,17.6,27.7,15.5,22.5,15.7z"/>
	<path class="st2" d="M2.7,7.4l3-1.2C6.3,6,6.7,5.6,6.9,5c0.2-0.5,0.5-1,0.9-1.3l0.1-0.1l0,0.1c1.7-1.4,5-1,5-1
		c1.3,0.1,2.4,1,2.8,2.2L16.8,8l1.8,1.8l0,0l0.7,0.7c0.1,0,0.2,0,0.2,0c0,0,0.1,0,0.1,0c0,0,0,0,0,0c0,0,0,0,0,0l0.1,0
		c0,0,0.1,0,0.1,0c0.1,0,0.2,0,0.3,0.1l0.2,0.1c0.1,0,0.3,0.1,0.5,0.1l0.2,0.1l0.3,0.1c0,0,0,0,0,0l0.4,0.1c0.6,0.2,1.3,0.4,2,0.6
		l0.3,0.1l0.3,0.1l0.3,0.1c1.2,0.3,2.1,0.6,2.1,0.6c0.1,0,0.3,0.1,0.4,0.1c1.3,0.1,8.7,0.6,11.5,1.1c0,0,0,0,0,0
		c0.1,0,0.1-0.1,0.2-0.1c0.1-0.1,0.1-0.1,0.2-0.2c0.4-0.3,0.8-0.7,1.2-1.1c0,0,0,0,0,0c0.2-0.2,0.4-0.4,0.6-0.6c0,0,0,0,0,0
		c0.2-0.2,0.3-0.4,0.5-0.6c0,0,0,0,0-0.1c0,0,0.1-0.1,0.1-0.1c0.3-0.4,0.5-0.7,0.7-1.1c0,0,0,0,0-0.1l0,0l0,0
		c0.2-0.3,0.3-0.6,0.5-0.8c0.1-0.2,0.2-0.4,0.3-0.5c0.2-0.4,0.4-0.8,0.6-1.2c0.2-0.5,0.4-1,0.5-1.5c0-0.1,0-0.2,0.1-0.2
		c0.1-0.5,0.3-1,0.4-1.4c0-0.1,0.1-0.1,0.2-0.1c0.1,0,0.2,0.1,0.2,0.2c0,0.7,0,1.5-0.1,2.5c-0.1,1-0.4,2.2-0.9,3.4
		c-0.3,0.6-0.5,1.1-0.7,1.6l0,0l0,0c-0.2,0.5-0.5,0.9-0.8,1.4c-0.1,0.1-0.2,0.2-0.2,0.4c-0.5,0.8-1.1,1.6-1.8,2.3
		c0.4,0.9,0.7,2,0.8,3.1l0,0l0.5,3.4v0c0.2,0.6,0.4,1.2,0.6,1.8c0.3,0.9,0.7,1.6,1.1,2.2v0c0,0,0,0,0,0l0,0l0,0
		c0.6,0.9,1.2,1.6,1.7,1.9c0.3,0.3,0.5,0.6,0.6,0.9c0.4,1.6,1.6,6,1.6,6l0,0h0c0,0.1,0,0.1,0,0.2c0.1,0.4,0,0.9-0.3,1.3
		c-0.3,0.3-0.6,0.5-0.9,0.5l-1.7,0c-0.5,0-0.8-0.2-1-0.5c-0.1-0.3-0.1-0.6,0.1-0.9c0.1-0.2,0.3-0.3,0.5-0.5c0.1-0.1,0.2-0.2,0.3-0.3
		L44,32.2l-0.6-1.8l-2.5-1.5c0.4,1.9,1,6.3,1,6.3c0.2,0.9-0.6,1.7-1.2,1.7L39,37c-1,0-1.3-0.8-0.8-1.4c0.2-0.3,0.6-0.5,0.8-0.7
		L38.1,30l-4.2-3c-0.6-0.6-1.1-1.3-1.5-1.9l-0.4,0.1c-0.6,0.2-1.3-0.1-1.5-0.4c-0.1-0.2,0-0.6,0.2-0.9c-3.8,0.6-7.7,1.1-10.7,1.1
		l0.8,4.7l0.2,1c0,0.2-0.5,3-0.6,3.7l0,0l0,0c0,0-0.3,2.6-1.9,2.6L16.7,37c-0.7,0-1.1-0.2-1.2-0.5c-0.1-0.3,0-0.8,0.3-1.2
		c0.3-0.3,0.7-0.5,1.1-0.7c0.2-0.1,0.5-0.2,0.7-0.3l0.4-1.7c0.2-0.8,0.1-1.7-0.2-2.5l-1-2.6l-0.8-2l-1.2,5.7c0,0.2-0.1,0.4-0.2,0.6
		l-1.5,2.9l0,0c-0.2,0.7-0.7,1.6-1.5,1.6L10,36.5c-1.5,0-1.3-1-0.8-1.6c0.4-0.5,1.1-0.7,1.5-0.9l0.9-1.5c0.4-0.8,0.7-1.7,0.7-2.6
		l0.3-8.7c-0.1-0.2-0.1-0.5-0.2-0.7c-0.1-0.6-0.1-1.2-0.1-1.8v-1.1l-1-1.6l-2-3.3c-0.2-0.3-0.5-0.5-0.9-0.5l-0.4,0l0,0l-0.2,0
		l-1.8,0l0,0l-1.1,0c-0.8,0-1.5-0.2-1.9-0.7C2.7,11,2.5,10.3,2.4,9.2c0,0,0-0.1,0-0.1c0,0,0-0.1,0-0.1L2.1,8.2
		C2.1,7.8,2.4,7.5,2.7,7.4z"/>
</g>
</svg>
